<svg width="70" height="50" viewBox="0 0 70 50" fill="none" xmlns="http://www.w3.org/2000/svg">
<path d="M11.604 29.1604C11.1882 29.2564 10.5958 29.322 9.8267 29.3572C8.96975 30.3871 8.09956 31.004 7.21613 31.208C7.18495 31.2152 7.15377 31.2224 7.1226 31.2296C6.48621 31.3656 5.94894 31.3145 5.51078 31.0763C5.08063 30.8253 4.80315 30.4295 4.67837 29.8891C4.55119 29.3382 4.62469 28.8505 4.89887 28.426C5.18344 27.999 5.6791 27.7039 6.38584 27.5408C6.85354 27.4328 7.63785 27.4159 8.73877 27.4901C9.89405 27.5628 10.7367 27.5379 11.2668 27.4155C12.1398 27.2139 12.6446 26.7689 12.7813 26.0806L13.4865 26.3611C13.6034 27.9105 12.9759 28.8436 11.604 29.1604ZM6.32975 30.0004C6.38974 30.2603 6.64319 30.3386 7.0901 30.2354C7.53701 30.1322 8.04426 29.8399 8.61185 29.3586C7.64446 29.3411 6.98927 29.372 6.64629 29.4511C6.53197 29.4775 6.44403 29.5471 6.38248 29.6598C6.31853 29.7622 6.30096 29.8757 6.32975 30.0004ZM10.8521 30.1714L10.9879 31.8971L13.3107 31.3608C13.4547 31.5575 13.5506 31.7597 13.5986 31.9676C13.6466 32.1755 13.5887 32.3749 13.4248 32.566C13.2585 32.7467 13.0247 32.8719 12.7233 32.9415L11.0864 33.3194L11.1032 33.4633C12.5567 33.7846 13.425 34.5584 13.7082 35.7848C13.9218 36.7098 13.8287 37.421 13.429 37.9183C13.0269 38.4052 12.4933 38.7255 11.8281 38.8791C11.1629 39.0327 10.6101 38.9851 10.1695 38.7365C9.72658 38.4776 9.44031 38.0674 9.31073 37.5062C9.28914 37.4127 9.27193 37.2908 9.25912 37.1404L8.93495 33.8162L7.46951 34.1545C7.39509 33.5477 7.34147 33.0784 7.30865 32.7466L8.80528 32.4011L8.66001 30.9896C9.14046 30.6049 9.56257 30.3706 9.92634 30.2867C10.2901 30.2027 10.5987 30.1643 10.8521 30.1714ZM11.9838 37.3488C12.2333 37.2912 12.4311 37.1525 12.5774 36.9326C12.7213 36.7023 12.7477 36.3897 12.6565 35.9948C12.4765 35.2153 11.9851 34.6993 11.1824 34.4467C11.2825 35.6388 11.3609 36.3815 11.4177 36.6749C11.4825 36.9555 11.5645 37.1446 11.6636 37.2421C11.7732 37.3372 11.8799 37.3728 11.9838 37.3488ZM21.0344 28.9207C21.3858 32.3865 21.5867 34.2285 21.637 34.4467C21.733 34.8625 21.9317 35.0355 22.2331 34.966C22.5034 34.9036 22.7524 34.6545 22.9802 34.2187C23.216 33.7702 23.3422 33.1554 23.3589 32.3743C23.7883 32.6692 24.0634 32.9122 24.1841 33.1033C24.1778 34.1666 23.9629 34.9662 23.5392 35.5019C23.1155 36.0376 22.6282 36.369 22.0774 36.4962C21.1732 36.705 20.4848 36.4972 20.0122 35.8728C19.6326 36.694 18.9906 37.2089 18.0864 37.4177C17.3381 37.5905 16.7181 37.5366 16.2263 37.256C15.7346 36.9754 15.4192 36.5337 15.28 35.9309C15.2464 35.7854 15.2136 35.5248 15.1816 35.149C14.9743 33.1607 14.801 31.5805 14.6618 30.4085C14.9575 30.2197 15.2406 30.0942 15.5108 30.0318C15.781 29.9694 15.9861 29.933 16.126 29.9226C16.2659 29.9122 16.4138 29.9601 16.5697 30.0665C16.7256 30.1728 16.8324 30.3506 16.89 30.6001L17.2934 34.6943C17.3014 34.8238 17.3174 34.9405 17.3414 35.0445C17.483 35.6577 17.8344 35.8995 18.3956 35.7699C18.9153 35.6499 19.2878 35.2957 19.5132 34.7072C19.4868 34.5929 19.4552 34.4086 19.4184 34.1544L18.9754 29.8887C19.0074 29.6952 19.1297 29.5137 19.3423 29.3442C19.5526 29.1643 19.8344 29.0335 20.1877 28.9519C20.5515 28.868 20.8337 28.8575 21.0344 28.9207ZM27.0174 29.5262C26.9118 29.0689 26.6459 28.8894 26.2198 28.9878C25.8041 29.0838 25.5339 29.4308 25.4092 30.0289C26.7357 30.6531 27.5261 31.5161 27.7804 32.6178C27.9652 33.4181 27.8821 34.0777 27.5312 34.5966C27.1803 35.1155 26.6671 35.4529 25.9915 35.6089C25.3159 35.7649 24.7743 35.671 24.3665 35.3273C23.9563 34.9732 23.6768 34.4739 23.528 33.8295C23.4824 33.632 23.454 33.4853 23.4428 33.3894L22.8906 28.5085C23.2384 28.3078 23.6046 28.163 23.9891 28.0743C24.6231 27.9279 24.9941 28.0885 25.1021 28.5562L25.1093 28.5874C25.4122 28.0029 25.8859 27.6363 26.5302 27.4875C26.9979 27.3796 27.3869 27.4047 27.6971 27.563C28.005 27.7108 28.1997 27.9615 28.2812 28.3148C28.3628 28.6682 28.2949 28.9904 28.0775 29.2814C27.868 29.5597 27.5503 29.748 27.1241 29.8464C27.1034 29.8512 27.0826 29.856 27.0618 29.8608C27.0562 29.7417 27.0414 29.6301 27.0174 29.5262ZM26.7491 32.7738C26.6099 32.171 26.1589 31.6402 25.3962 31.1814C25.5546 32.7212 25.6351 33.4963 25.6375 33.5067C25.7383 33.9432 25.9653 34.1207 26.3187 34.0391C26.776 33.9335 26.9195 33.5117 26.7491 32.7738ZM34.1429 31.7892L33.7143 28.2263C33.6496 27.9457 33.5228 27.7286 33.3341 27.5751C33.1454 27.4216 32.8796 27.3845 32.5366 27.4637C32.204 27.5405 31.953 27.7572 31.7835 28.1138C31.6221 28.4576 31.5618 28.8601 31.6026 29.3214C31.8859 32.2556 32.046 33.8498 32.0828 34.104L29.9782 34.5899L29.1403 27.0491C29.5504 26.834 29.8698 26.7001 30.0984 26.6473C30.7948 26.4865 31.2173 26.6571 31.3661 27.1592C31.7602 26.5427 32.3106 26.1529 33.0173 25.9898C33.7345 25.8242 34.3365 25.8713 34.8234 26.1311C35.3103 26.3908 35.6162 26.791 35.741 27.3314C35.7746 27.4769 35.807 27.7595 35.8382 28.1793C35.9639 29.8142 36.0568 30.7616 36.1168 31.0215C36.2271 31.4995 36.4434 31.7014 36.7656 31.627C37.4724 31.4638 37.8372 30.6023 37.8603 29.0425C38.3 29.3351 38.5815 29.5821 38.7046 29.7835C38.5761 31.7399 37.8311 32.8753 36.4696 33.1897C35.8252 33.3384 35.3015 33.2514 34.8985 32.9284C34.4956 32.6055 34.2437 32.2257 34.1429 31.7892ZM36.7227 20.9469C36.9042 20.6423 37.1664 20.4503 37.5093 20.3712C37.8523 20.292 38.1721 20.3495 38.4688 20.5437C38.7734 20.7252 38.9653 20.9874 39.0445 21.3304C39.1237 21.6734 39.0662 21.9932 38.8719 22.2898C38.6881 22.584 38.4246 22.7708 38.0817 22.8499C37.7387 22.9291 37.4201 22.8768 37.1259 22.693C36.8316 22.5091 36.6449 22.2457 36.5657 21.9027C36.4865 21.5597 36.5389 21.2411 36.7227 20.9469ZM37.1382 25.6623C37.1989 25.4512 37.364 25.2653 37.6334 25.1046C37.9004 24.9335 38.1742 24.8155 38.4548 24.7507C38.7459 24.6835 39.0089 24.6611 39.2439 24.6835C39.5609 27.9054 39.723 29.532 39.7302 29.5632C39.7262 29.783 39.741 29.9657 39.7746 30.1112C39.8058 30.2463 39.8438 30.3635 39.8886 30.4626C39.9926 30.7232 40.2108 30.8151 40.5434 30.7383C40.8864 30.6592 41.1478 30.3689 41.3276 29.8676C41.5155 29.3535 41.6173 28.799 41.6333 28.2042C41.7156 28.229 41.8587 28.3273 42.0626 28.4992C42.2665 28.671 42.396 28.8053 42.4512 28.9021C42.4353 29.7815 42.2367 30.5335 41.8554 31.1579C41.4742 31.7824 40.9353 32.175 40.239 32.3358C39.5426 32.4966 38.9834 32.4451 38.5612 32.1813C38.1494 31.9151 37.8812 31.5118 37.7564 30.9713C37.73 30.857 37.7076 30.7363 37.6892 30.6091L37.1382 25.6623ZM42.8134 20.1975C42.8278 20.2598 42.9454 21.4095 43.1663 23.6465L45.458 23.1173L45.7352 24.3178L43.2876 24.8829L43.3308 25.2834C44.782 26.0212 45.6468 26.9929 45.9251 28.1985C46.1435 29.1443 46.0564 29.8815 45.6639 30.41C45.2818 30.9361 44.753 31.2771 44.0774 31.4331C43.4019 31.5891 42.8674 31.5264 42.474 31.245C42.0782 30.9532 41.8215 30.5527 41.704 30.0434C41.6776 29.9291 41.6592 29.802 41.6488 29.6621L41.1746 25.4036L41.105 25.3868L39.8422 25.6784C39.8078 25.5768 39.7643 25.4118 39.7115 25.1831C39.6563 24.9441 39.649 24.6994 39.6898 24.4492L41.0305 24.1396L40.5503 19.784C40.7494 19.6504 41.0308 19.5417 41.3946 19.4577C42.1845 19.2753 42.6574 19.5219 42.8134 20.1975ZM44.877 28.4241C44.7114 27.707 44.2364 27.0722 43.4521 26.5198C43.6225 28.1116 43.7354 29.0271 43.7906 29.2661C43.8986 29.7338 44.1033 29.9328 44.4047 29.8633C44.6229 29.8129 44.782 29.6721 44.8819 29.4411C44.9794 29.1996 44.9778 28.8606 44.877 28.4241ZM52.412 21.676C52.7634 25.1418 52.9643 26.9838 53.0147 27.202C53.1107 27.6178 53.3094 27.7908 53.6108 27.7213C53.881 27.6589 54.13 27.4098 54.3578 26.974C54.5936 26.5255 54.7199 25.9107 54.7366 25.1295C55.1659 25.4245 55.441 25.6675 55.5617 25.8586C55.5555 26.9219 55.3405 27.7215 54.9168 28.2572C54.4931 28.7929 54.0059 29.1243 53.455 29.2515C52.5508 29.4603 51.8624 29.2525 51.3899 28.6281C51.0102 29.4493 50.3682 29.9642 49.464 30.173C48.7157 30.3458 48.0957 30.2919 47.604 30.0113C47.1122 29.7307 46.7968 29.289 46.6576 28.6862C46.624 28.5407 46.5912 28.2801 46.5592 27.9043C46.3519 25.916 46.1786 24.3358 46.0394 23.1638C46.3352 22.975 46.6182 22.8495 46.8884 22.7871C47.1586 22.7247 47.3637 22.6883 47.5036 22.6779C47.6435 22.6675 47.7914 22.7154 47.9473 22.8218C48.1033 22.9281 48.21 23.1059 48.2676 23.3554L48.671 27.4496C48.679 27.5791 48.695 27.6958 48.719 27.7998C48.8606 28.413 49.212 28.6548 49.7733 28.5252C50.2929 28.4052 50.6654 28.051 50.8908 27.4625C50.8644 27.3482 50.8328 27.1639 50.796 26.9097L50.353 22.644C50.385 22.4505 50.5073 22.269 50.7199 22.0995C50.9302 21.9196 51.212 21.7888 51.5654 21.7072C51.9291 21.6233 52.2114 21.6128 52.412 21.676ZM58.395 22.2815C58.2894 21.8242 58.0236 21.6447 57.5974 21.7431C57.1817 21.8391 56.9115 22.1861 56.7869 22.7842C58.1133 23.4084 58.9037 24.2714 59.1581 25.3731C59.3428 26.1734 59.2598 26.833 58.9089 27.3519C58.5579 27.8708 58.0447 28.2082 57.3691 28.3642C56.6936 28.5202 56.1519 28.4263 55.7441 28.0826C55.3339 27.7284 55.0544 27.2292 54.9057 26.5848C54.8601 26.3873 54.8317 26.2406 54.8205 26.1447L54.2683 21.2638C54.616 21.0631 54.9822 20.9183 55.3667 20.8296C56.0007 20.6832 56.3717 20.8438 56.4797 21.3115L56.4869 21.3427C56.7898 20.7582 57.2635 20.3916 57.9079 20.2428C58.3756 20.1348 58.7645 20.16 59.0748 20.3183C59.3826 20.4661 59.5773 20.7168 59.6589 21.0701C59.7405 21.4235 59.6725 21.7457 59.4551 22.0367C59.2457 22.315 58.9279 22.5033 58.5018 22.6017C58.481 22.6065 58.4602 22.6113 58.4394 22.6161C58.4338 22.497 58.419 22.3854 58.395 22.2815ZM58.1267 25.5291C57.9876 24.9263 57.5366 24.3955 56.7738 23.9367C56.9323 25.4765 57.0127 26.2516 57.0151 26.262C57.1159 26.6985 57.343 26.876 57.6963 26.7944C58.1536 26.6888 58.2971 26.267 58.1267 25.5291ZM63.574 23.1548C64.1872 22.8709 64.6053 22.5007 64.8283 22.0441C65.0617 21.5852 65.1376 21.179 65.056 20.8257C64.972 20.4619 64.8169 20.2405 64.5906 20.1613C64.3723 20.0694 64.1489 20.0499 63.9202 20.1027C63.4317 20.2154 63.064 20.5904 62.817 21.2277C62.578 21.8521 62.5461 22.5437 62.7213 23.3024C62.8941 24.0507 63.2004 24.5711 63.6401 24.8637C64.0879 25.1435 64.5768 25.2222 65.1068 25.0998C65.8863 24.9198 66.5722 24.4768 67.1646 23.7708C67.7569 23.0648 68.1758 22.2237 68.4211 21.2474C68.7002 21.4129 68.9704 21.6351 69.2319 21.9141C69.0689 22.7728 68.6373 23.6771 67.937 24.627C67.5845 25.0915 67.1332 25.5077 66.5832 25.8755C66.0436 26.241 65.4568 26.4969 64.8228 26.6433C63.7835 26.8832 62.8892 26.7558 62.14 26.261C61.3373 25.7238 60.8123 24.92 60.5651 23.8495C60.318 22.779 60.5021 21.7512 61.1176 20.7662C61.7435 19.7787 62.6177 19.1554 63.7402 18.8962C64.5405 18.7115 65.2308 18.7382 65.8113 18.9763C66.3894 19.2041 66.752 19.613 66.8992 20.2031C67.0839 21.0033 66.9117 21.7273 66.3825 22.375C65.8637 23.0202 65.0711 23.57 64.0046 24.0242L63.574 23.1548Z" fill="current"/>
<path d="M11.604 29.1604C11.1882 29.2564 10.5958 29.322 9.8267 29.3572C8.96975 30.3871 8.09956 31.004 7.21613 31.208C7.18495 31.2152 7.15377 31.2224 7.1226 31.2296C6.48621 31.3656 5.94894 31.3145 5.51078 31.0763C5.08063 30.8253 4.80315 30.4295 4.67837 29.8891C4.55119 29.3382 4.62469 28.8505 4.89887 28.426C5.18344 27.999 5.6791 27.7039 6.38584 27.5408C6.85354 27.4328 7.63785 27.4159 8.73877 27.4901C9.89405 27.5628 10.7367 27.5379 11.2668 27.4155C12.1398 27.2139 12.6446 26.7689 12.7813 26.0806L13.4865 26.3611C13.6034 27.9105 12.9759 28.8436 11.604 29.1604ZM6.32975 30.0004C6.38974 30.2603 6.64319 30.3386 7.0901 30.2354C7.53701 30.1322 8.04426 29.8399 8.61185 29.3586C7.64446 29.3411 6.98927 29.372 6.64629 29.4511C6.53197 29.4775 6.44403 29.5471 6.38248 29.6598C6.31853 29.7622 6.30096 29.8757 6.32975 30.0004ZM10.8521 30.1714L10.9879 31.8971L13.3107 31.3608C13.4547 31.5575 13.5506 31.7597 13.5986 31.9676C13.6466 32.1755 13.5887 32.3749 13.4248 32.566C13.2585 32.7467 13.0247 32.8719 12.7233 32.9415L11.0864 33.3194L11.1032 33.4633C12.5567 33.7846 13.425 34.5584 13.7082 35.7848C13.9218 36.7098 13.8287 37.421 13.429 37.9183C13.0269 38.4052 12.4933 38.7255 11.8281 38.8791C11.1629 39.0327 10.6101 38.9851 10.1695 38.7365C9.72658 38.4776 9.44031 38.0674 9.31073 37.5062C9.28914 37.4127 9.27193 37.2908 9.25912 37.1404L8.93495 33.8162L7.46951 34.1545C7.39509 33.5477 7.34147 33.0784 7.30865 32.7466L8.80528 32.4011L8.66001 30.9896C9.14046 30.6049 9.56257 30.3706 9.92634 30.2867C10.2901 30.2027 10.5987 30.1643 10.8521 30.1714ZM11.9838 37.3488C12.2333 37.2912 12.4311 37.1525 12.5774 36.9326C12.7213 36.7023 12.7477 36.3897 12.6565 35.9948C12.4765 35.2153 11.9851 34.6993 11.1824 34.4467C11.2825 35.6388 11.3609 36.3815 11.4177 36.6749C11.4825 36.9555 11.5645 37.1446 11.6636 37.2421C11.7732 37.3372 11.8799 37.3728 11.9838 37.3488ZM21.0344 28.9207C21.3858 32.3865 21.5867 34.2285 21.637 34.4467C21.733 34.8625 21.9317 35.0355 22.2331 34.966C22.5034 34.9036 22.7524 34.6545 22.9802 34.2187C23.216 33.7702 23.3422 33.1554 23.3589 32.3743C23.7883 32.6692 24.0634 32.9122 24.1841 33.1033C24.1778 34.1666 23.9629 34.9662 23.5392 35.5019C23.1155 36.0376 22.6282 36.369 22.0774 36.4962C21.1732 36.705 20.4848 36.4972 20.0122 35.8728C19.6326 36.694 18.9906 37.2089 18.0864 37.4177C17.3381 37.5905 16.7181 37.5366 16.2263 37.256C15.7346 36.9754 15.4192 36.5337 15.28 35.9309C15.2464 35.7854 15.2136 35.5248 15.1816 35.149C14.9743 33.1607 14.801 31.5805 14.6618 30.4085C14.9575 30.2197 15.2406 30.0942 15.5108 30.0318C15.781 29.9694 15.9861 29.933 16.126 29.9226C16.2659 29.9122 16.4138 29.9601 16.5697 30.0665C16.7256 30.1728 16.8324 30.3506 16.89 30.6001L17.2934 34.6943C17.3014 34.8238 17.3174 34.9405 17.3414 35.0445C17.483 35.6577 17.8344 35.8995 18.3956 35.7699C18.9153 35.6499 19.2878 35.2957 19.5132 34.7072C19.4868 34.5929 19.4552 34.4086 19.4184 34.1544L18.9754 29.8887C19.0074 29.6952 19.1297 29.5137 19.3423 29.3442C19.5526 29.1643 19.8344 29.0335 20.1877 28.9519C20.5515 28.868 20.8337 28.8575 21.0344 28.9207ZM27.0174 29.5262C26.9118 29.0689 26.6459 28.8894 26.2198 28.9878C25.8041 29.0838 25.5339 29.4308 25.4092 30.0289C26.7357 30.6531 27.5261 31.5161 27.7804 32.6178C27.9652 33.4181 27.8821 34.0777 27.5312 34.5966C27.1803 35.1155 26.6671 35.4529 25.9915 35.6089C25.3159 35.7649 24.7743 35.671 24.3665 35.3273C23.9563 34.9732 23.6768 34.4739 23.528 33.8295C23.4824 33.632 23.454 33.4853 23.4428 33.3894L22.8906 28.5085C23.2384 28.3078 23.6046 28.163 23.9891 28.0743C24.6231 27.9279 24.9941 28.0885 25.1021 28.5562L25.1093 28.5874C25.4122 28.0029 25.8859 27.6363 26.5302 27.4875C26.9979 27.3796 27.3869 27.4047 27.6971 27.563C28.005 27.7108 28.1997 27.9615 28.2812 28.3148C28.3628 28.6682 28.2949 28.9904 28.0775 29.2814C27.868 29.5597 27.5503 29.748 27.1241 29.8464C27.1034 29.8512 27.0826 29.856 27.0618 29.8608C27.0562 29.7417 27.0414 29.6301 27.0174 29.5262ZM26.7491 32.7738C26.6099 32.171 26.1589 31.6402 25.3962 31.1814C25.5546 32.7212 25.6351 33.4963 25.6375 33.5067C25.7383 33.9432 25.9653 34.1207 26.3187 34.0391C26.776 33.9335 26.9195 33.5117 26.7491 32.7738ZM34.1429 31.7892L33.7143 28.2263C33.6496 27.9457 33.5228 27.7286 33.3341 27.5751C33.1454 27.4216 32.8796 27.3845 32.5366 27.4637C32.204 27.5405 31.953 27.7572 31.7835 28.1138C31.6221 28.4576 31.5618 28.8601 31.6026 29.3214C31.8859 32.2556 32.046 33.8498 32.0828 34.104L29.9782 34.5899L29.1403 27.0491C29.5504 26.834 29.8698 26.7001 30.0984 26.6473C30.7948 26.4865 31.2173 26.6571 31.3661 27.1592C31.7602 26.5427 32.3106 26.1529 33.0173 25.9898C33.7345 25.8242 34.3365 25.8713 34.8234 26.1311C35.3103 26.3908 35.6162 26.791 35.741 27.3314C35.7746 27.4769 35.807 27.7595 35.8382 28.1793C35.9639 29.8142 36.0568 30.7616 36.1168 31.0215C36.2271 31.4995 36.4434 31.7014 36.7656 31.627C37.4724 31.4638 37.8372 30.6023 37.8603 29.0425C38.3 29.3351 38.5815 29.5821 38.7046 29.7835C38.5761 31.7399 37.8311 32.8753 36.4696 33.1897C35.8252 33.3384 35.3015 33.2514 34.8985 32.9284C34.4956 32.6055 34.2437 32.2257 34.1429 31.7892ZM36.7227 20.9469C36.9042 20.6423 37.1664 20.4503 37.5093 20.3712C37.8523 20.292 38.1721 20.3495 38.4688 20.5437C38.7734 20.7252 38.9653 20.9874 39.0445 21.3304C39.1237 21.6734 39.0662 21.9932 38.8719 22.2898C38.6881 22.584 38.4246 22.7708 38.0817 22.8499C37.7387 22.9291 37.4201 22.8768 37.1259 22.693C36.8316 22.5091 36.6449 22.2457 36.5657 21.9027C36.4865 21.5597 36.5389 21.2411 36.7227 20.9469ZM37.1382 25.6623C37.1989 25.4512 37.364 25.2653 37.6334 25.1046C37.9004 24.9335 38.1742 24.8155 38.4548 24.7507C38.7459 24.6835 39.0089 24.6611 39.2439 24.6835C39.5609 27.9054 39.723 29.532 39.7302 29.5632C39.7262 29.783 39.741 29.9657 39.7746 30.1112C39.8058 30.2463 39.8438 30.3635 39.8886 30.4626C39.9926 30.7232 40.2108 30.8151 40.5434 30.7383C40.8864 30.6592 41.1478 30.3689 41.3276 29.8676C41.5155 29.3535 41.6173 28.799 41.6333 28.2042C41.7156 28.229 41.8587 28.3273 42.0626 28.4992C42.2665 28.671 42.396 28.8053 42.4512 28.9021C42.4353 29.7815 42.2367 30.5335 41.8554 31.1579C41.4742 31.7824 40.9353 32.175 40.239 32.3358C39.5426 32.4966 38.9834 32.4451 38.5612 32.1813C38.1494 31.9151 37.8812 31.5118 37.7564 30.9713C37.73 30.857 37.7076 30.7363 37.6892 30.6091L37.1382 25.6623ZM42.8134 20.1975C42.8278 20.2598 42.9454 21.4095 43.1663 23.6465L45.458 23.1173L45.7352 24.3178L43.2876 24.8829L43.3308 25.2834C44.782 26.0212 45.6468 26.9929 45.9251 28.1985C46.1435 29.1443 46.0564 29.8815 45.6639 30.41C45.2818 30.9361 44.753 31.2771 44.0774 31.4331C43.4019 31.5891 42.8674 31.5264 42.474 31.245C42.0782 30.9532 41.8215 30.5527 41.704 30.0434C41.6776 29.9291 41.6592 29.802 41.6488 29.6621L41.1746 25.4036L41.105 25.3868L39.8422 25.6784C39.8078 25.5768 39.7643 25.4118 39.7115 25.1831C39.6563 24.9441 39.649 24.6994 39.6898 24.4492L41.0305 24.1396L40.5503 19.784C40.7494 19.6504 41.0308 19.5417 41.3946 19.4577C42.1845 19.2753 42.6574 19.5219 42.8134 20.1975ZM44.877 28.4241C44.7114 27.707 44.2364 27.0722 43.4521 26.5198C43.6225 28.1116 43.7354 29.0271 43.7906 29.2661C43.8986 29.7338 44.1033 29.9328 44.4047 29.8633C44.6229 29.8129 44.782 29.6721 44.8819 29.4411C44.9794 29.1996 44.9778 28.8606 44.877 28.4241ZM52.412 21.676C52.7634 25.1418 52.9643 26.9838 53.0147 27.202C53.1107 27.6178 53.3094 27.7908 53.6108 27.7213C53.881 27.6589 54.13 27.4098 54.3578 26.974C54.5936 26.5255 54.7199 25.9107 54.7366 25.1295C55.1659 25.4245 55.441 25.6675 55.5617 25.8586C55.5555 26.9219 55.3405 27.7215 54.9168 28.2572C54.4931 28.7929 54.0059 29.1243 53.455 29.2515C52.5508 29.4603 51.8624 29.2525 51.3899 28.6281C51.0102 29.4493 50.3682 29.9642 49.464 30.173C48.7157 30.3458 48.0957 30.2919 47.604 30.0113C47.1122 29.7307 46.7968 29.289 46.6576 28.6862C46.624 28.5407 46.5912 28.2801 46.5592 27.9043C46.3519 25.916 46.1786 24.3358 46.0394 23.1638C46.3352 22.975 46.6182 22.8495 46.8884 22.7871C47.1586 22.7247 47.3637 22.6883 47.5036 22.6779C47.6435 22.6675 47.7914 22.7154 47.9473 22.8218C48.1033 22.9281 48.21 23.1059 48.2676 23.3554L48.671 27.4496C48.679 27.5791 48.695 27.6958 48.719 27.7998C48.8606 28.413 49.212 28.6548 49.7733 28.5252C50.2929 28.4052 50.6654 28.051 50.8908 27.4625C50.8644 27.3482 50.8328 27.1639 50.796 26.9097L50.353 22.644C50.385 22.4505 50.5073 22.269 50.7199 22.0995C50.9302 21.9196 51.212 21.7888 51.5654 21.7072C51.9291 21.6233 52.2114 21.6128 52.412 21.676ZM58.395 22.2815C58.2894 21.8242 58.0236 21.6447 57.5974 21.7431C57.1817 21.8391 56.9115 22.1861 56.7869 22.7842C58.1133 23.4084 58.9037 24.2714 59.1581 25.3731C59.3428 26.1734 59.2598 26.833 58.9089 27.3519C58.5579 27.8708 58.0447 28.2082 57.3691 28.3642C56.6936 28.5202 56.1519 28.4263 55.7441 28.0826C55.3339 27.7284 55.0544 27.2292 54.9057 26.5848C54.8601 26.3873 54.8317 26.2406 54.8205 26.1447L54.2683 21.2638C54.616 21.0631 54.9822 20.9183 55.3667 20.8296C56.0007 20.6832 56.3717 20.8438 56.4797 21.3115L56.4869 21.3427C56.7898 20.7582 57.2635 20.3916 57.9079 20.2428C58.3756 20.1348 58.7645 20.16 59.0748 20.3183C59.3826 20.4661 59.5773 20.7168 59.6589 21.0701C59.7405 21.4235 59.6725 21.7457 59.4551 22.0367C59.2457 22.315 58.9279 22.5033 58.5018 22.6017C58.481 22.6065 58.4602 22.6113 58.4394 22.6161C58.4338 22.497 58.419 22.3854 58.395 22.2815ZM58.1267 25.5291C57.9876 24.9263 57.5366 24.3955 56.7738 23.9367C56.9323 25.4765 57.0127 26.2516 57.0151 26.262C57.1159 26.6985 57.343 26.876 57.6963 26.7944C58.1536 26.6888 58.2971 26.267 58.1267 25.5291ZM63.574 23.1548C64.1872 22.8709 64.6053 22.5007 64.8283 22.0441C65.0617 21.5852 65.1376 21.179 65.056 20.8257C64.972 20.4619 64.8169 20.2405 64.5906 20.1613C64.3723 20.0694 64.1489 20.0499 63.9202 20.1027C63.4317 20.2154 63.064 20.5904 62.817 21.2277C62.578 21.8521 62.5461 22.5437 62.7213 23.3024C62.8941 24.0507 63.2004 24.5711 63.6401 24.8637C64.0879 25.1435 64.5768 25.2222 65.1068 25.0998C65.8863 24.9198 66.5722 24.4768 67.1646 23.7708C67.7569 23.0648 68.1758 22.2237 68.4211 21.2474C68.7002 21.4129 68.9704 21.6351 69.2319 21.9141C69.0689 22.7728 68.6373 23.6771 67.937 24.627C67.5845 25.0915 67.1332 25.5077 66.5832 25.8755C66.0436 26.241 65.4568 26.4969 64.8228 26.6433C63.7835 26.8832 62.8892 26.7558 62.14 26.261C61.3373 25.7238 60.8123 24.92 60.5651 23.8495C60.318 22.779 60.5021 21.7512 61.1176 20.7662C61.7435 19.7787 62.6177 19.1554 63.7402 18.8962C64.5405 18.7115 65.2308 18.7382 65.8113 18.9763C66.3894 19.2041 66.752 19.613 66.8992 20.2031C67.0839 21.0033 66.9117 21.7273 66.3825 22.375C65.8637 23.0202 65.0711 23.57 64.0046 24.0242L63.574 23.1548Z" fill="current"/>
<path fill-rule="evenodd" clip-rule="evenodd" d="M35.9995 7.50482C39.692 7.88808 42.5709 11.0084 42.5709 14.8022C42.5709 15.7211 42.3944 16.5971 42.0864 17.4073C41.6668 17.3791 41.2733 17.4331 40.9446 17.509C40.4612 17.6206 39.9177 17.8 39.4361 18.1231L38.8504 18.516C38.2826 18.3161 37.6713 18.2812 37.0594 18.4224C36.1877 18.6237 35.4739 19.146 35.0153 19.9053C34.5549 20.6524 34.422 21.5081 34.617 22.3526C34.7818 23.0665 35.1607 23.6849 35.7218 24.1428C35.6839 24.1897 35.6469 24.2383 35.6112 24.2888C34.616 23.8124 33.5458 23.8151 32.5674 24.041C32.0397 24.1628 31.5549 24.3638 31.1202 24.6376C30.5695 24.5388 30.0501 24.6058 29.6485 24.6985C29.1609 24.8111 28.6561 25.0446 28.2113 25.278L27.7954 25.4961C27.1936 25.37 26.6002 25.4188 26.0803 25.5388C25.621 25.6448 25.198 25.817 24.8184 26.0501C24.3287 25.9828 23.8772 26.0475 23.5392 26.1255C22.9583 26.2596 22.4072 26.4783 21.8909 26.7763L21.5328 26.983C20.8551 26.7985 20.1936 26.898 19.7378 27.0032C19.1745 27.1333 18.5819 27.372 18.0689 27.8018C17.8964 27.9421 17.7171 28.115 17.5543 28.3227C17.1607 28.0847 16.6217 27.8802 15.9776 27.9281C15.7737 27.9433 15.5564 27.9786 15.3454 28.0212C15.4965 27.4243 15.5258 26.8075 15.4808 26.2106L15.3868 24.9646L11.2875 23.3338L10.8665 25.4545C10.8513 25.4585 10.8348 25.4626 10.8168 25.4668C10.5887 25.5194 9.9947 25.5649 8.86859 25.4943C7.76083 25.4198 6.71686 25.4117 5.9359 25.592C4.93819 25.8224 3.9009 26.3171 3.23464 27.3168L3.22661 27.3288L3.21876 27.341C3.11141 27.5072 3.01941 27.6772 2.942 27.85C2.83992 27.3624 2.78624 26.8569 2.78624 26.339C2.78624 26.2459 2.79252 26.154 2.7988 26.0622C2.80154 26.0221 2.80428 25.9821 2.8065 25.9419C1.13984 24.5968 0.0718384 22.5404 0.0718384 20.2319C0.0718384 17.6203 1.43963 15.3338 3.49446 14.0332C3.47904 13.8388 3.46446 13.6443 3.46446 13.4458C3.46446 9.3928 6.75015 6.10788 10.8024 6.10788C11.1103 6.10788 11.4117 6.13304 11.7099 6.16948C12.2706 2.6739 15.2921 0 18.9457 0C21.7014 0 24.099 1.52091 25.3532 3.76699C26.4561 3.10334 27.7436 2.71441 29.1251 2.71441C32.2812 2.71441 34.9632 4.71017 35.9995 7.50482ZM11.4583 33.5542C11.0259 33.6346 10.5801 33.6769 10.1241 33.6769C9.14225 33.6769 8.20544 33.484 7.3495 33.1342C7.33346 32.989 7.31984 32.8598 7.30865 32.7466L8.80527 32.4011L8.66001 30.9896C8.74035 30.9252 8.81905 30.8651 8.89613 30.8092C9.11802 30.6483 9.32639 30.5222 9.52125 30.4309C9.64274 30.374 9.75897 30.3306 9.86995 30.3007C9.8889 30.2957 9.9077 30.291 9.92634 30.2866C10.0511 30.2578 10.1693 30.2344 10.2811 30.2163C10.3907 30.1986 10.494 30.186 10.5911 30.1786C10.6446 30.1745 10.6963 30.172 10.746 30.171C10.7657 30.1706 10.7851 30.1705 10.8042 30.1706C10.8204 30.1707 10.8364 30.171 10.8521 30.1714L10.9879 31.8971L13.3107 31.3608C13.4547 31.5575 13.5506 31.7597 13.5986 31.9676C13.6274 32.092 13.6181 32.2134 13.5709 32.3318C13.5639 32.3496 13.556 32.3673 13.5472 32.3849C13.5167 32.4461 13.4759 32.5065 13.4248 32.566C13.2985 32.7033 13.1332 32.8085 12.9289 32.8817C12.8643 32.9048 12.7957 32.9247 12.7233 32.9415L11.0864 33.3194L11.1032 33.4633L11.1205 33.4672C11.2037 33.4858 11.285 33.506 11.3643 33.5276C11.396 33.5363 11.4273 33.5451 11.4583 33.5542ZM18.1034 39.4504C18.1446 40.4763 18.1667 41.399 18.141 41.8673C18.0147 44.1661 17.4084 46.6867 16.8794 48.8858C16.7875 49.2679 16.698 49.6403 16.6137 50.0001H25.436C25.436 50.0001 24.1355 44.5809 24.0787 42.7716C24.0221 40.9622 24.6444 37.6303 24.6444 37.6303L24.6616 37.6124C24.5539 37.5917 24.4466 37.5661 24.3398 37.5351C23.8265 37.9621 23.2235 38.2842 22.5273 38.4449C21.882 38.5939 21.1763 38.6356 20.4695 38.4572C19.9194 38.8912 19.268 39.1975 18.5363 39.3664C18.3939 39.3993 18.2494 39.4276 18.1034 39.4504ZM27.3544 34.8271L27.1854 35.0018C27.022 35.1538 26.8366 35.2814 26.6293 35.3844C26.4358 35.4806 26.2232 35.5554 25.9915 35.6089C25.9041 35.6291 25.8189 35.6451 25.736 35.6569C25.2781 35.7222 24.8885 35.6599 24.5673 35.47L24.5525 35.4611C24.4877 35.4218 24.4257 35.3772 24.3665 35.3273C24.2217 35.2023 24.0932 35.0592 23.981 34.8981C24.5553 34.6862 25.1708 34.2849 25.7571 33.8212C25.8473 33.9696 25.9715 34.0483 26.1297 34.0574C26.188 34.0608 26.2511 34.0547 26.3187 34.0391C26.4105 34.0179 26.4897 33.9839 26.5562 33.9372C26.7445 33.8051 26.8314 33.5708 26.8169 33.2344C26.812 33.1189 26.7951 32.9914 26.7662 32.852C26.7609 32.8263 26.7552 32.8003 26.7491 32.7738C26.6933 32.532 26.5873 32.3018 26.4311 32.0831L26.4162 32.0625C26.2708 31.8637 26.0837 31.6745 25.8549 31.495C25.7171 31.387 25.5642 31.2824 25.3962 31.1814L25.4272 31.4826L25.4831 32.0254C25.0168 31.2155 24.7013 30.3087 24.5738 29.341C24.2449 29.5266 23.8989 29.683 23.5415 29.8158C23.4985 29.996 23.4513 30.1875 23.4023 30.3868C23.336 30.6562 23.2662 30.9397 23.1983 31.2283L22.8906 28.5085C22.9259 28.4882 22.9613 28.4684 22.9969 28.4492C23.0307 28.431 23.0648 28.4133 23.099 28.3961C23.3838 28.2528 23.6805 28.1455 23.9891 28.0743C24.0197 28.0672 24.0498 28.0608 24.0792 28.0552L24.0816 28.0547C24.1108 28.0492 24.1394 28.0443 24.1674 28.0401C24.6931 27.9622 25.0046 28.1342 25.1021 28.5562L25.1093 28.5874C25.1158 28.5748 25.1224 28.5624 25.129 28.55C25.3261 28.1848 25.5919 27.9075 25.9266 27.718C26.1077 27.6155 26.3089 27.5386 26.5302 27.4875C26.6255 27.4655 26.7176 27.4491 26.8063 27.4381C26.9343 27.4223 27.0554 27.418 27.1698 27.4252C27.3654 27.4375 27.5412 27.4834 27.6971 27.563C28.005 27.7108 28.1997 27.9614 28.2812 28.3148C28.3628 28.6682 28.2949 28.9904 28.0775 29.2814C28.0592 29.3057 28.0401 29.3293 28.0202 29.3522C27.8699 29.525 27.6727 29.6589 27.4285 29.7538C27.3341 29.7905 27.2326 29.8213 27.1241 29.8464L27.0618 29.8608C27.0562 29.7417 27.0414 29.6301 27.0174 29.5262C27.0099 29.4939 27.0017 29.463 26.9926 29.4335L26.9864 29.4137C26.9771 29.3852 26.967 29.3581 26.9562 29.3323C26.9461 29.3083 26.9354 29.2855 26.924 29.2639C26.9163 29.2494 26.9084 29.2354 26.9002 29.222C26.8912 29.2074 26.8819 29.1933 26.8722 29.1799C26.7634 29.0293 26.6096 28.9566 26.4108 28.962C26.3512 28.9636 26.2875 28.9722 26.2198 28.9878C26.1487 29.0042 26.0819 29.028 26.0193 29.0591C25.9722 29.0825 25.9276 29.11 25.8854 29.1417C25.8506 29.1677 25.8175 29.1966 25.786 29.2283C25.6328 29.3824 25.5181 29.6029 25.442 29.8899C25.4378 29.9056 25.4338 29.9215 25.4299 29.9376C25.4226 29.9674 25.4157 29.9978 25.4092 30.0289C25.5917 30.1148 25.7641 30.2052 25.9263 30.3001C26.0712 30.3849 26.208 30.4733 26.3367 30.5653C26.4427 30.6411 26.5432 30.7193 26.6382 30.8C26.681 30.8363 26.7226 30.8731 26.7631 30.9104C26.8052 30.9491 26.8461 30.9883 26.8857 31.0281C27.1239 31.2668 27.3189 31.5248 27.4707 31.8021L27.4789 31.8171C27.5795 32.0033 27.6608 32.1982 27.7227 32.4016C27.7366 32.4473 27.7496 32.4935 27.7615 32.5401C27.7681 32.5658 27.7744 32.5917 27.7804 32.6178C27.868 32.9971 27.8954 33.3448 27.8627 33.6609C27.8263 34.0117 27.7158 34.3236 27.5312 34.5966C27.4763 34.6779 27.4173 34.7547 27.3544 34.8271ZM34.2786 35.312C34.4578 35.2488 34.6338 35.1788 34.8063 35.1023C34.6055 35.0413 34.4071 34.9612 34.2131 34.8596L34.2786 35.312ZM43.4629 24.8424L43.2876 24.8829L43.321 25.1926C42.8879 26.1865 42.2408 27.0659 41.4384 27.7728L41.1746 25.4036L41.105 25.3868L39.8422 25.6784C39.8316 25.6471 39.8202 25.6098 39.8078 25.5665L39.8049 25.5561C39.7779 25.4601 39.7467 25.3358 39.7115 25.1831C39.6931 25.1034 39.68 25.0231 39.6723 24.9422C39.6628 24.843 39.6613 24.7428 39.6678 24.6418C39.672 24.5779 39.6793 24.5137 39.6898 24.4492L41.0305 24.1396L40.5503 19.784C40.7494 19.6504 41.0308 19.5417 41.3946 19.4577C41.8537 19.3517 42.2057 19.3906 42.4507 19.5745C42.4856 19.6007 42.5184 19.6299 42.549 19.662C42.6729 19.7921 42.761 19.9706 42.8134 20.1975C42.8225 20.2372 42.8736 20.718 42.9665 21.64C43.0017 21.9888 43.0429 22.4008 43.09 22.8759L43.1663 23.6465L43.8259 23.4942C43.7474 23.96 43.6249 24.4108 43.4629 24.8424ZM39.6643 28.9301C39.4923 29.0096 39.3167 29.0827 39.1379 29.1491C39.0338 30.152 38.7277 31.0954 38.2611 31.9377C38.2371 31.9134 38.2138 31.8883 38.1912 31.8625C37.9218 32.3693 37.5504 32.7402 37.0769 32.9752C36.9436 33.0413 36.8022 33.0967 36.6528 33.1413C36.593 33.1591 36.5319 33.1753 36.4696 33.1897C35.8912 33.3232 35.4101 33.2667 35.0262 33.0202C34.9824 32.9921 34.9398 32.9615 34.8985 32.9284C34.4956 32.6054 34.2437 32.2257 34.1429 31.7892L33.7143 28.2263C33.6876 28.1106 33.6504 28.0057 33.6026 27.9116C33.5477 27.8034 33.4788 27.7095 33.396 27.6299C33.3762 27.6108 33.3555 27.5926 33.3341 27.5751C33.1454 27.4216 32.8796 27.3845 32.5366 27.4637C32.387 27.4982 32.2539 27.5611 32.1373 27.6522C31.9947 27.7637 31.8768 27.9176 31.7835 28.1138C31.6221 28.4576 31.5618 28.8601 31.6026 29.3214L31.7019 30.3471C31.9236 32.6288 32.0506 33.8811 32.0828 34.104L29.9782 34.5899L29.1403 27.0491C29.3714 26.9279 29.5738 26.8324 29.7473 26.7627C29.8816 26.7088 29.9987 26.6703 30.0984 26.6473C30.1992 26.624 30.2943 26.6077 30.3836 26.5983C30.4155 26.5949 30.4467 26.5925 30.4771 26.5909C30.9502 26.5663 31.2466 26.7558 31.3661 27.1592C31.607 26.7824 31.9063 26.4903 32.264 26.2828C32.4915 26.1509 32.7426 26.0532 33.0173 25.9897L33.0297 25.9869C33.6325 25.8495 34.1536 25.863 34.5931 26.0272L34.6071 26.0325C34.6815 26.061 34.7537 26.0938 34.8234 26.1311C34.9674 26.2079 35.0955 26.2969 35.2078 26.3982C35.4754 26.6397 35.6531 26.9507 35.741 27.3314C35.7746 27.4769 35.807 27.7595 35.8382 28.1793C35.8481 28.3078 35.8578 28.4322 35.8673 28.5522C35.88 28.7137 35.8924 28.8675 35.9044 29.0136C35.9295 29.3183 35.9529 29.5896 35.9748 29.8274C36.0143 30.257 36.0485 30.5774 36.0776 30.7886L36.0851 30.8414C36.0965 30.9194 36.1071 30.9794 36.1168 31.0215C36.1312 31.0838 36.1474 31.1415 36.1654 31.1945C36.1816 31.2423 36.1993 31.2862 36.2185 31.3264C36.341 31.5827 36.5234 31.6829 36.7656 31.627C37.068 31.5572 37.3079 31.3595 37.4851 31.0339C37.5436 30.9265 37.5953 30.8051 37.6401 30.6697C37.6462 30.6513 37.6522 30.6326 37.6581 30.6136L37.6584 30.6126C37.6662 30.5874 37.6737 30.5619 37.681 30.5358L37.1382 25.6623C37.1426 25.647 37.1475 25.6318 37.153 25.6168C37.1846 25.5305 37.2342 25.4485 37.3019 25.3709C37.3851 25.2756 37.4956 25.1868 37.6334 25.1046C37.6477 25.0954 37.6621 25.0864 37.6765 25.0775C37.8082 24.9961 37.9415 24.9276 38.0765 24.872C38.1784 24.83 38.2813 24.7953 38.385 24.768C38.4083 24.7618 38.4315 24.7561 38.4548 24.7507C38.4758 24.7459 38.4967 24.7413 38.5173 24.7369C38.6641 24.7058 38.8036 24.6865 38.9358 24.6788C39.0433 24.6726 39.1461 24.6742 39.2439 24.6835L39.3024 25.2775L39.335 25.6084L39.3581 25.8424C39.4342 26.6144 39.4986 27.2664 39.5514 27.7981L39.5517 27.8015L39.6154 28.4414L39.6643 28.9301ZM22.8411 34.4575C22.7622 34.5781 22.6809 34.678 22.5973 34.757C22.4805 34.8672 22.3591 34.9369 22.2331 34.966C21.9546 35.0303 21.7637 34.8873 21.6606 34.5371C21.6522 34.5084 21.6443 34.4783 21.637 34.4467C21.6303 34.4176 21.6209 34.3596 21.6088 34.2726C21.589 34.1303 21.5621 33.9104 21.5279 33.613L21.5271 33.6061L21.5093 33.4498L21.5088 33.4452C21.4977 33.3471 21.486 33.242 21.4736 33.1297C21.4494 32.9107 21.4228 32.6648 21.3936 32.3921C21.1786 33.0041 20.9085 33.446 20.5719 33.5075C20.2127 33.5727 19.7317 33.0734 19.2289 32.3297L19.4184 34.1544C19.4552 34.4086 19.4868 34.5929 19.5132 34.7072C19.3976 35.0091 19.2432 35.2494 19.0501 35.428C18.8668 35.5975 18.6487 35.7115 18.3956 35.7699C18.213 35.812 18.0527 35.8149 17.9145 35.7784C17.9413 36.2281 17.9748 36.8081 18.008 37.4351C18.034 37.4295 18.0601 37.4238 18.0864 37.4177C18.2563 37.3784 18.417 37.3284 18.5684 37.2675C18.622 37.246 18.6743 37.2231 18.7256 37.1989C19.3003 36.9271 19.7291 36.4851 20.0122 35.8728C20.1265 36.0238 20.2534 36.1505 20.393 36.2527C20.518 36.3444 20.6531 36.4164 20.7984 36.4689C21.0179 36.5483 21.2607 36.583 21.5265 36.573C21.7003 36.5665 21.8839 36.5409 22.0774 36.4962C22.2399 36.4587 22.3968 36.4034 22.5482 36.3304L22.5561 36.3265C22.9149 36.1517 23.2426 35.8768 23.5392 35.5019C23.6686 35.3383 23.7785 35.15 23.869 34.9372C23.8255 34.9515 23.7822 34.9646 23.7393 34.9765C23.2195 35.1209 22.9502 34.8972 22.8411 34.4575ZM17.3109 34.875C16.6803 34.7786 15.8583 34.3773 15.0491 33.8906C15.0467 33.8677 15.0442 33.8448 15.0418 33.8221L15.0347 33.7555C14.9533 32.9919 14.8781 32.3027 14.8091 31.6881C14.7564 31.218 14.7072 30.7914 14.6618 30.4085C14.7642 30.3431 14.8652 30.2853 14.9646 30.2351C15.1521 30.1403 15.3342 30.0726 15.5108 30.0318C15.781 29.9694 15.9861 29.933 16.126 29.9226C16.2368 29.9143 16.3527 29.9427 16.4736 30.0078C16.1227 30.6131 15.6886 31.1632 15.1851 31.6438C16.0129 32.1989 16.6367 32.4837 17.0895 32.6247L17.2934 34.6943C17.2973 34.7576 17.3031 34.8178 17.3109 34.875ZM18.9876 30.0058C19.6212 30.1864 20.2896 30.2842 20.9818 30.2842C21.0459 30.2842 21.1096 30.2831 21.1731 30.281C21.1299 29.8594 21.0836 29.406 21.0344 28.9207C20.9993 28.9096 20.9616 28.9008 20.9215 28.8943C20.7324 28.8634 20.4878 28.8827 20.1877 28.9519C20.0845 28.9758 19.9873 29.0038 19.8963 29.036C19.6758 29.1141 19.4911 29.2168 19.3423 29.3442C19.2374 29.4278 19.1544 29.5144 19.0935 29.6039C19.031 29.6957 18.9916 29.7907 18.9754 29.8887L18.9876 30.0058ZM11.3032 27.4069C11.8993 27.2629 12.3196 27.0027 12.5641 26.6264C12.6061 26.5618 12.6429 26.4938 12.6745 26.4224C12.7216 26.316 12.7572 26.2021 12.7813 26.0806L13.4865 26.3611C13.5169 26.7642 13.4969 27.1256 13.4266 27.4453C13.372 27.6931 13.2872 27.9159 13.1721 28.1136C13.0572 28.3108 12.9122 28.483 12.7371 28.6303C12.5662 28.7741 12.3666 28.8941 12.1383 28.9903C11.9926 29.0517 11.8352 29.1034 11.6662 29.1454C11.6456 29.1506 11.6249 29.1555 11.604 29.1604C11.403 29.2068 11.1609 29.2461 10.8774 29.2783C10.5743 29.3127 10.2241 29.339 9.82669 29.3572C9.79662 29.3934 9.76653 29.429 9.73643 29.4641C9.71762 29.4861 9.69881 29.5078 9.67999 29.5294C9.51772 29.7151 9.35499 29.8861 9.19178 30.0424C9.08627 30.1434 8.98056 30.2382 8.87465 30.3269L8.85921 30.3398C8.76972 30.4142 8.6801 30.4842 8.59033 30.5499C8.53 30.5939 8.4696 30.6361 8.40914 30.6762L8.4073 30.6774C8.22362 30.7992 8.03935 30.9026 7.85448 30.9877C7.76267 31.0299 7.67071 31.0676 7.57861 31.1008C7.48899 31.1332 7.39923 31.1612 7.30933 31.1849C7.27828 31.1931 7.24722 31.2008 7.21613 31.208L7.12259 31.2296C7.10158 31.2341 7.08068 31.2384 7.05988 31.2424C7.02811 31.2487 6.9966 31.2544 6.96534 31.2597C6.86809 31.2761 6.77327 31.288 6.6809 31.2952C6.25296 31.3287 5.87739 31.2633 5.55419 31.0991C5.53961 31.0917 5.52515 31.0841 5.51078 31.0763C5.21248 30.9022 4.98761 30.6585 4.83616 30.3453C4.76922 30.2068 4.71662 30.0548 4.67837 29.8891C4.58313 29.4766 4.60043 29.0995 4.73026 28.7578C4.74349 28.723 4.75789 28.6885 4.77346 28.6545C4.80913 28.5764 4.85093 28.5002 4.89887 28.426C5.15996 28.0343 5.59872 27.7535 6.21516 27.5839C6.27062 27.5686 6.32751 27.5542 6.38584 27.5408C6.84025 27.4358 7.59355 27.4169 8.64573 27.484L8.73876 27.4901L8.77653 27.4925C9.12792 27.514 9.45005 27.5265 9.74291 27.5298C10.3599 27.5368 10.8471 27.5032 11.2043 27.4292C11.2256 27.4248 11.2464 27.4202 11.2668 27.4155L11.3032 27.4069ZM37.9193 22.8778C37.8459 22.886 37.7737 22.8878 37.7026 22.8833C37.5009 22.8707 37.3087 22.8072 37.1258 22.6929C36.8316 22.5091 36.6449 22.2457 36.5657 21.9027C36.4865 21.5597 36.5388 21.2411 36.7227 20.9469C36.9042 20.6423 37.1664 20.4503 37.5093 20.3712C37.8523 20.292 38.1721 20.3495 38.4688 20.5437C38.5284 20.5793 38.5837 20.6179 38.6347 20.6596C38.8442 20.831 38.9808 21.0546 39.0445 21.3304C39.1237 21.6734 39.0662 21.9932 38.8719 22.2898C38.8561 22.3152 38.8396 22.3397 38.8226 22.3635C38.7342 22.4869 38.6298 22.5887 38.5095 22.6691C38.4805 22.6884 38.4506 22.7065 38.4197 22.7234C38.3172 22.7794 38.2046 22.8216 38.0817 22.8499C38.0607 22.8548 38.0398 22.8591 38.019 22.863C37.9855 22.8692 37.9523 22.8741 37.9193 22.8778ZM6.38248 29.6598C6.41873 29.5934 6.46412 29.542 6.51867 29.5056C6.52736 29.4998 6.53628 29.4944 6.54543 29.4893C6.56318 29.4795 6.58182 29.4712 6.60132 29.4642C6.60953 29.4613 6.61789 29.4587 6.62641 29.4562L6.63102 29.455L6.64629 29.4511C6.66612 29.4466 6.687 29.4421 6.70892 29.4379L6.73855 29.4323C6.75939 29.4286 6.78109 29.425 6.80366 29.4215L6.81952 29.4191C6.84499 29.4153 6.87152 29.4117 6.89912 29.4082C7.06001 29.388 7.25718 29.3735 7.49061 29.3645C7.70337 29.3564 7.94625 29.3529 8.21927 29.3541C8.34386 29.3546 8.47472 29.3561 8.61185 29.3586C8.56375 29.3994 8.51609 29.4388 8.46885 29.4769C8.40914 29.525 8.35011 29.571 8.29178 29.6148C8.12725 29.7383 7.96822 29.8446 7.81471 29.9336C7.64124 30.0342 7.47481 30.1127 7.31541 30.1692C7.28965 30.1783 7.26407 30.1869 7.23868 30.1948C7.18843 30.2106 7.13891 30.2241 7.0901 30.2354C7.05775 30.2429 7.02642 30.2494 6.99609 30.255C6.96893 30.2599 6.94258 30.2642 6.91704 30.2676L6.90097 30.2697C6.87896 30.2725 6.85756 30.2746 6.83679 30.2762C6.73399 30.284 6.6464 30.2775 6.57403 30.2568C6.44189 30.2189 6.36047 30.1335 6.32975 30.0004C6.30096 29.8757 6.31853 29.7622 6.38248 29.6598Z" fill="current"/>
<path d="M61.2278 34.0792C61.6495 33.9797 61.9214 34.0287 62.0432 34.226C62.2977 33.9399 62.6585 33.7418 63.1257 33.6317C63.5929 33.5215 64.0404 33.6181 64.468 33.9214C64.8957 34.2247 65.17 34.6326 65.2908 35.1452C65.3077 35.2166 65.322 35.292 65.3339 35.3714C65.4629 36.2382 65.3304 36.9544 64.9364 37.5199C64.5408 38.079 63.9406 38.4534 63.136 38.6431C62.9544 38.6859 62.7511 38.7099 62.5263 38.7149L62.8459 41.465L61.5708 41.7656C61.1432 38.0924 60.85 35.5998 60.6913 34.2879C60.8154 34.2038 60.9942 34.1343 61.2278 34.0792ZM63.9345 35.5369C63.8672 35.2514 63.7427 35.0137 63.5609 34.8236C63.3791 34.6336 63.1519 34.5707 62.8794 34.635C62.5095 34.7222 62.2839 35.0288 62.2024 35.5549C62.2991 36.5458 62.356 37.1215 62.3733 37.2818C62.4127 37.478 62.5088 37.6094 62.6615 37.6762C62.8142 37.7429 62.9847 37.7541 63.1728 37.7097C63.5038 37.6317 63.7411 37.4182 63.8849 37.0692C64.0572 36.6382 64.0738 36.1274 63.9345 35.5369Z" fill="current"/>
<path d="M57.6529 34.9324C58.2498 34.7916 58.7914 34.866 59.2774 35.1555C59.77 35.4435 60.0813 35.8633 60.2113 36.4148C60.4087 37.2519 60.3205 37.9816 59.9467 38.604C59.5778 39.2184 59.0462 39.6074 58.3519 39.7711C57.6576 39.9348 57.0594 39.8669 56.5573 39.5675C56.0617 39.2665 55.745 38.8241 55.6073 38.2401C55.4146 37.4225 55.5114 36.7147 55.8978 36.1168C56.2892 35.5108 56.8742 35.116 57.6529 34.9324ZM57.6441 35.7667C57.3391 35.8386 57.1241 36.0742 56.9991 36.4736C56.8741 36.8729 56.8645 37.3409 56.9705 37.8776C57.0593 38.2539 57.2073 38.5478 57.4147 38.7592C57.6286 38.969 57.8912 39.0372 58.2027 38.9638C58.5142 38.8904 58.7332 38.6572 58.8597 38.2644C58.9928 37.87 59.0073 37.4522 58.9032 37.0109C58.7992 36.5697 58.642 36.2369 58.4315 36.0125C58.218 35.7752 57.9555 35.6932 57.6441 35.7667Z" fill="current"/>
<path d="M53.7641 39.6199L53.4906 37.4138C53.4493 37.2386 53.3694 37.1033 53.251 37.0079C53.1326 36.9125 52.9729 36.8886 52.7717 36.936C52.5706 36.9834 52.4178 37.1051 52.3132 37.301C52.2137 37.4888 52.1621 37.7202 52.1584 37.995C52.2002 38.3756 52.2598 38.9335 52.3372 39.6686C52.4132 40.3973 52.4634 40.8718 52.4879 41.092L51.1934 41.3973C50.7228 37.3095 50.429 34.7999 50.3122 33.8686C50.4362 33.7845 50.615 33.715 50.8486 33.6599C51.3547 33.5406 51.643 33.6301 51.7133 33.9286L51.7271 33.987C51.857 35.0318 51.9513 35.9547 52.0101 36.756C52.2806 36.3634 52.6332 36.1159 53.0679 36.0134C53.5027 35.9109 53.8726 35.9401 54.1777 36.1011C54.4827 36.262 54.675 36.5112 54.7546 36.8486C54.776 36.9395 54.7963 37.1128 54.8155 37.3685C54.8958 38.377 54.9558 38.9656 54.9956 39.1343C55.0675 39.4393 55.204 39.5681 55.4052 39.5206C55.5739 39.4809 55.7263 39.3285 55.8624 39.0635C56.0036 38.7905 56.0774 38.4066 56.0841 37.9119C56.3598 38.0935 56.5364 38.247 56.614 38.3726C56.5427 39.5812 56.0789 40.2865 55.2224 40.4884C54.8201 40.5833 54.4925 40.5304 54.2397 40.3297C53.9869 40.129 53.8284 39.8924 53.7641 39.6199Z" fill="current"/>
<path d="M49.2067 36.6875C49.3325 36.3496 49.3656 36.0541 49.3059 35.8011C49.2463 35.548 49.1275 35.3637 48.9495 35.2481C48.7716 35.1325 48.5658 35.1022 48.3322 35.1573C48.0986 35.2124 47.9242 35.3152 47.809 35.4656C47.6923 35.6096 47.663 35.8049 47.7211 36.0514C47.7777 36.2915 48.0489 36.6865 48.5347 37.2363C49.0206 37.7862 49.3303 38.1413 49.464 38.3015C49.8268 38.7365 50.0626 39.1844 50.1712 39.6451C50.3073 40.2226 50.2074 40.7427 49.8713 41.2056C49.5401 41.6603 49.0891 41.9551 48.5181 42.0897C47.9535 42.2228 47.4678 42.1524 47.0607 41.8785C46.6521 41.5981 46.392 41.2211 46.2803 40.7474C46.0738 39.8714 46.445 39.0202 47.394 38.1937C46.7477 37.4282 46.3841 36.8735 46.303 36.5296C46.1898 36.0495 46.2856 35.5988 46.5904 35.1776C46.9002 34.7484 47.3341 34.468 47.8921 34.3364C48.4566 34.2033 48.9218 34.2443 49.2876 34.4595C49.6534 34.6746 49.8883 35.0028 49.9923 35.444C50.0612 35.736 50.0426 36.0931 49.9367 36.5154L49.2067 36.6875ZM47.5516 41.0846C47.7712 41.2315 48.0043 41.2759 48.2508 41.2177C48.5039 41.1581 48.6817 41.0408 48.7843 40.8659C48.8919 40.683 48.912 40.4488 48.8447 40.1633C48.7835 39.9038 48.608 39.6095 48.3181 39.2806C48.2799 39.2348 48.209 39.1522 48.1055 39.0328C48.0005 38.9069 47.9249 38.8185 47.8787 38.7678C47.2407 39.3155 46.989 39.8748 47.1236 40.4458C47.1925 40.7378 47.3351 40.9508 47.5516 41.0846Z" fill="current"/>
</svg>
